<svg 
 xmlns="http://www.w3.org/2000/svg"
 xmlns:xlink="http://www.w3.org/1999/xlink"
 width="1300px" height="272px">
<path fill-rule="evenodd"  fill="rgb(6, 10, 37)"
 d="M1300.000,258.890 C1300.000,260.012 1291.925,260.012 1291.925,261.134 C1291.925,262.256 1300.000,262.256 1300.000,263.378 C1300.000,264.501 1291.794,265.194 1291.983,266.302 C1292.529,269.505 1297.401,271.802 1296.278,271.890 C1281.969,273.011 1281.610,263.843 1267.256,263.843 C1252.902,263.843 1252.902,271.903 1238.547,271.903 C1224.194,271.903 1224.194,263.843 1209.841,263.843 C1195.486,263.843 1195.486,271.903 1181.132,271.903 C1166.778,271.903 1166.778,263.843 1152.424,263.843 C1138.071,263.843 1138.071,271.903 1123.717,271.903 C1109.363,271.903 1109.363,263.843 1095.008,263.843 C1080.654,263.843 1080.654,271.903 1066.301,271.903 C1051.947,271.903 1051.947,263.843 1037.593,263.843 C1023.238,263.843 1023.238,271.903 1008.883,271.903 C994.529,271.903 994.529,263.843 980.175,263.843 C965.821,263.843 965.821,271.903 951.467,271.903 C937.113,271.903 937.113,263.843 922.759,263.843 C908.405,263.843 908.405,271.903 894.050,271.903 C879.696,271.903 879.696,263.843 865.341,263.843 C850.986,263.843 850.986,271.903 836.631,271.903 C822.280,271.903 822.280,263.843 807.929,263.843 C793.574,263.843 793.574,271.903 779.220,271.903 C764.868,271.903 764.868,263.843 750.516,263.843 C736.162,263.843 736.162,271.903 721.809,271.903 C707.455,271.903 707.455,263.843 693.102,263.843 C678.749,263.843 678.749,271.903 664.397,271.903 C650.043,271.903 650.043,263.843 635.689,263.843 C621.334,263.843 621.334,271.903 606.978,271.903 C592.625,271.903 592.625,263.843 578.271,263.843 C563.917,263.843 563.917,271.903 549.563,271.903 C535.210,271.903 535.210,263.843 520.856,263.843 C506.502,263.843 506.502,271.903 492.148,271.903 C477.793,271.903 477.793,263.843 463.438,263.843 C449.082,263.843 449.082,271.903 434.726,271.903 C420.371,271.903 420.371,263.843 406.016,263.843 C391.661,263.843 391.661,271.903 377.305,271.903 C362.950,271.903 362.950,263.843 348.595,263.843 C334.240,263.843 334.240,271.903 319.884,271.903 C305.529,271.903 305.529,263.843 291.173,263.843 C276.817,263.843 276.817,271.903 262.460,271.903 C248.107,271.903 248.107,263.843 233.754,263.843 C219.399,263.843 219.399,271.903 205.044,271.903 C190.689,271.903 190.689,263.843 176.333,263.843 C161.977,263.843 161.977,271.903 147.620,271.903 C133.262,271.903 133.262,263.843 118.905,263.843 C104.547,263.843 104.547,271.903 90.189,271.903 C75.832,271.903 75.832,263.843 61.475,263.843 C47.115,263.843 47.115,271.903 32.756,271.903 C19.210,271.903 18.677,265.735 6.643,264.100 C7.489,263.919 8.075,263.701 8.075,263.402 C8.075,262.284 -0.000,262.284 -0.000,261.167 C-0.000,260.048 8.075,260.048 8.075,258.930 C8.075,257.811 -0.000,257.811 -0.000,256.692 C-0.000,255.573 8.075,255.573 8.075,254.454 C8.075,253.335 -0.000,253.335 -0.000,252.217 C-0.000,251.099 8.075,251.099 8.075,249.981 C8.075,248.862 -0.000,248.862 -0.000,247.744 C-0.000,246.626 8.075,246.626 8.075,245.507 C8.075,244.388 -0.000,244.388 -0.000,243.268 C-0.000,242.149 8.075,242.149 8.075,241.030 C8.075,239.912 -0.000,239.912 -0.000,238.793 C-0.000,237.674 8.075,237.674 8.075,236.556 C8.075,235.437 -0.000,235.437 -0.000,234.318 C-0.000,233.199 8.075,233.199 8.075,232.079 C8.075,230.960 -0.000,230.960 -0.000,229.841 C-0.000,228.722 8.075,228.722 8.075,227.603 C8.075,226.484 -0.000,226.484 -0.000,225.365 C-0.000,224.245 8.075,224.245 8.075,223.125 C8.075,222.006 -0.000,222.006 -0.000,220.887 C-0.000,219.768 8.075,219.768 8.075,218.649 C8.075,217.529 -0.000,217.529 -0.000,216.410 C-0.000,215.292 8.075,215.292 8.075,214.174 C8.075,213.057 -0.000,213.057 -0.000,211.940 C-0.000,210.822 8.075,210.822 8.075,209.705 C8.075,208.585 -0.000,208.585 -0.000,207.466 C-0.000,206.347 8.075,206.347 8.075,205.228 C8.075,204.110 -0.000,204.110 -0.000,202.991 C-0.000,201.872 8.075,201.872 8.075,200.753 C8.075,199.633 -0.000,199.633 -0.000,198.513 C-0.000,197.394 8.075,197.394 8.075,196.274 C8.075,195.154 -0.000,195.154 -0.000,194.034 C-0.000,192.914 8.075,192.914 8.075,191.795 C8.075,190.674 -0.000,190.674 -0.000,189.553 C-0.000,188.433 8.075,188.433 8.075,187.313 C8.075,186.192 -0.000,186.192 -0.000,185.072 C-0.000,183.951 8.075,183.951 8.075,182.830 C8.075,181.712 -0.000,181.712 -0.000,180.593 C-0.000,179.473 8.075,179.473 8.075,178.352 C8.075,177.230 -0.000,177.230 -0.000,176.109 C-0.000,174.988 8.075,174.988 8.075,173.865 C8.075,172.744 -0.000,172.744 -0.000,171.622 C-0.000,170.498 8.075,170.498 8.075,169.374 C8.075,168.250 2.599,163.197 3.722,163.109 C6.656,162.879 8.998,163.087 11.000,163.554 L11.000,-0.000 L1291.000,-0.000 L1291.000,170.496 C1291.734,170.651 1292.519,170.785 1293.357,170.899 C1292.511,171.080 1291.925,171.298 1291.925,171.597 C1291.925,172.715 1300.000,172.715 1300.000,173.833 C1300.000,174.951 1291.925,174.951 1291.925,176.069 C1291.925,177.188 1300.000,177.188 1300.000,178.307 C1300.000,179.426 1291.925,179.426 1291.925,180.545 C1291.925,181.664 1300.000,181.664 1300.000,182.782 C1300.000,183.900 1291.925,183.900 1291.925,185.019 C1291.925,186.137 1300.000,186.137 1300.000,187.255 C1300.000,188.373 1291.925,188.373 1291.925,189.492 C1291.925,190.611 1300.000,190.611 1300.000,191.731 C1300.000,192.850 1291.925,192.850 1291.925,193.969 C1291.925,195.087 1300.000,195.087 1300.000,196.206 C1300.000,197.325 1291.925,197.325 1291.925,198.443 C1291.925,199.562 1300.000,199.562 1300.000,200.681 C1300.000,201.801 1291.925,201.801 1291.925,202.920 C1291.925,204.040 1300.000,204.040 1300.000,205.158 C1300.000,206.277 1291.925,206.277 1291.925,207.396 C1291.925,208.515 1300.000,208.515 1300.000,209.635 C1300.000,210.754 1291.925,210.754 1291.925,211.874 C1291.925,212.993 1300.000,212.993 1300.000,214.112 C1300.000,215.231 1291.925,215.231 1291.925,216.351 C1291.925,217.470 1300.000,217.470 1300.000,218.589 C1300.000,219.707 1291.925,219.707 1291.925,220.825 C1291.925,221.942 1300.000,221.942 1300.000,223.059 C1300.000,224.177 1291.925,224.177 1291.925,225.294 C1291.925,226.414 1300.000,226.414 1300.000,227.533 C1300.000,228.652 1291.925,228.652 1291.925,229.771 C1291.925,230.890 1300.000,230.890 1300.000,232.008 C1300.000,233.127 1291.925,233.127 1291.925,234.246 C1291.925,235.366 1300.000,235.366 1300.000,236.487 C1300.000,237.606 1291.925,237.606 1291.925,238.725 C1291.925,239.845 1300.000,239.845 1300.000,240.965 C1300.000,242.085 1291.925,242.085 1291.925,243.205 C1291.925,244.325 1300.000,244.325 1300.000,245.446 C1300.000,246.566 1291.925,246.566 1291.925,247.686 C1291.925,248.807 1300.000,248.807 1300.000,249.927 C1300.000,251.048 1291.925,251.048 1291.925,252.169 C1291.925,253.288 1300.000,253.288 1300.000,254.406 C1300.000,255.527 1291.925,255.527 1291.925,256.647 C1291.925,257.769 1300.000,257.769 1300.000,258.890 ZM-0.000,265.638 C-0.000,265.241 1.021,264.986 2.331,264.771 C1.160,265.505 -0.000,266.307 -0.000,265.638 ZM4.351,263.855 C5.162,263.918 5.921,264.002 6.643,264.100 C5.447,264.357 3.728,264.542 2.331,264.771 C3.115,264.280 3.903,263.820 4.351,263.855 ZM1300.000,169.362 C1300.000,169.758 1298.979,170.013 1297.669,170.228 C1298.840,169.495 1300.000,168.692 1300.000,169.362 ZM1295.649,171.144 C1294.838,171.081 1294.080,170.997 1293.357,170.899 C1294.553,170.642 1296.272,170.457 1297.669,170.228 C1296.885,170.719 1296.097,171.179 1295.649,171.144 Z"/>
</svg>